<svg xmlns="http://www.w3.org/2000/svg" viewBox="0 0 1200 64" width="1200" height="64" role="img" aria-label="footer divider">
  <defs>
    <radialGradient id="glow" cx="0.5" cy="0.5" r="0.5">
      <stop offset="0" stop-color="#ffe2a0" stop-opacity="0.9"/>
      <stop offset="1" stop-color="#ffe2a0" stop-opacity="0"/>
    </radialGradient>
    <style>
      .w { transform-box: view-box; animation: w 3.6s ease-in-out infinite; }
      @keyframes w { 0%,100% { transform: translateY(0) scale(1); } 30% { transform: translateY(-5px) scale(1.25); } 60% { transform: translateY(0) scale(1); } }
      .star { transform-box: view-box; transform-origin: 600px 32px; animation: s 3.6s ease-in-out infinite; }
      @keyframes s { 0%,100% { transform: scale(.85) rotate(0deg); } 50% { transform: scale(1.1) rotate(45deg); } }
      @media (prefers-reduced-motion: reduce) { .w, .star { animation: none; } }
    </style>
  </defs>
  <g class="w" style="animation-delay:0.00s;transform-origin:150px 32px"><ellipse cx="150" cy="32" rx="3.2" ry="1.5" transform="rotate(-55 150 32)" fill="#7fb6d5" fill-opacity="0.15"/></g><g class="w" style="animation-delay:0.07s;transform-origin:168px 32px"><ellipse cx="168" cy="32" rx="3.2" ry="1.5" transform="rotate(-35 168 32)" fill="#a9cf8e" fill-opacity="0.15"/></g><g class="w" style="animation-delay:0.14s;transform-origin:186px 32px"><ellipse cx="186" cy="32" rx="3.4" ry="1.6" transform="rotate(-55 186 32)" fill="#f2d58a" fill-opacity="0.15"/></g><g class="w" style="animation-delay:0.21s;transform-origin:204px 32px"><ellipse cx="204" cy="32" rx="3.4" ry="1.6" transform="rotate(-35 204 32)" fill="#f6c39f" fill-opacity="0.18"/></g><g class="w" style="animation-delay:0.28s;transform-origin:222px 32px"><ellipse cx="222" cy="32" rx="3.5" ry="1.7" transform="rotate(-55 222 32)" fill="#f9b8c6" fill-opacity="0.24"/></g><g class="w" style="animation-delay:0.35s;transform-origin:240px 32px"><ellipse cx="240" cy="32" rx="3.5" ry="1.7" transform="rotate(-35 240 32)" fill="#b7a6d9" fill-opacity="0.3"/></g><g class="w" style="animation-delay:0.42s;transform-origin:258px 32px"><ellipse cx="258" cy="32" rx="3.7" ry="1.7" transform="rotate(-55 258 32)" fill="#9cc8e0" fill-opacity="0.36"/></g><g class="w" style="animation-delay:0.49s;transform-origin:276px 32px"><ellipse cx="276" cy="32" rx="3.7" ry="1.7" transform="rotate(-35 276 32)" fill="#8fbf7a" fill-opacity="0.41"/></g><g class="w" style="animation-delay:0.56s;transform-origin:294px 32px"><ellipse cx="294" cy="32" rx="3.8" ry="1.8" transform="rotate(-55 294 32)" fill="#7fb6d5" fill-opacity="0.46"/></g><g class="w" style="animation-delay:0.63s;transform-origin:312px 32px"><ellipse cx="312" cy="32" rx="3.8" ry="1.8" transform="rotate(-35 312 32)" fill="#a9cf8e" fill-opacity="0.51"/></g><g class="w" style="animation-delay:0.70s;transform-origin:330px 32px"><ellipse cx="330" cy="32" rx="4.0" ry="1.9" transform="rotate(-55 330 32)" fill="#f2d58a" fill-opacity="0.56"/></g><g class="w" style="animation-delay:0.77s;transform-origin:348px 32px"><ellipse cx="348" cy="32" rx="4.0" ry="1.9" transform="rotate(-35 348 32)" fill="#f6c39f" fill-opacity="0.6"/></g><g class="w" style="animation-delay:0.84s;transform-origin:366px 32px"><ellipse cx="366" cy="32" rx="4.2" ry="2.0" transform="rotate(-55 366 32)" fill="#f9b8c6" fill-opacity="0.65"/></g><g class="w" style="animation-delay:0.91s;transform-origin:384px 32px"><ellipse cx="384" cy="32" rx="4.2" ry="2.0" transform="rotate(-35 384 32)" fill="#b7a6d9" fill-opacity="0.69"/></g><g class="w" style="animation-delay:0.98s;transform-origin:402px 32px"><ellipse cx="402" cy="32" rx="4.3" ry="2.0" transform="rotate(-55 402 32)" fill="#9cc8e0" fill-opacity="0.73"/></g><g class="w" style="animation-delay:1.05s;transform-origin:420px 32px"><ellipse cx="420" cy="32" rx="4.3" ry="2.0" transform="rotate(-35 420 32)" fill="#8fbf7a" fill-opacity="0.77"/></g><g class="w" style="animation-delay:1.12s;transform-origin:438px 32px"><ellipse cx="438" cy="32" rx="4.5" ry="2.1" transform="rotate(-55 438 32)" fill="#7fb6d5" fill-opacity="0.8"/></g><g class="w" style="animation-delay:1.19s;transform-origin:456px 32px"><ellipse cx="456" cy="32" rx="4.5" ry="2.1" transform="rotate(-35 456 32)" fill="#a9cf8e" fill-opacity="0.84"/></g><g class="w" style="animation-delay:1.26s;transform-origin:474px 32px"><ellipse cx="474" cy="32" rx="4.6" ry="2.2" transform="rotate(-55 474 32)" fill="#f2d58a" fill-opacity="0.87"/></g><g class="w" style="animation-delay:1.33s;transform-origin:492px 32px"><ellipse cx="492" cy="32" rx="4.6" ry="2.2" transform="rotate(-35 492 32)" fill="#f6c39f" fill-opacity="0.9"/></g><g class="w" style="animation-delay:1.40s;transform-origin:510px 32px"><ellipse cx="510" cy="32" rx="4.8" ry="2.2" transform="rotate(-55 510 32)" fill="#f9b8c6" fill-opacity="0.92"/></g><g class="w" style="animation-delay:1.47s;transform-origin:528px 32px"><ellipse cx="528" cy="32" rx="4.8" ry="2.2" transform="rotate(-35 528 32)" fill="#b7a6d9" fill-opacity="0.95"/></g><g class="w" style="animation-delay:1.54s;transform-origin:546px 32px"><ellipse cx="546" cy="32" rx="5.0" ry="2.3" transform="rotate(-55 546 32)" fill="#9cc8e0" fill-opacity="0.97"/></g><g class="w" style="animation-delay:1.61s;transform-origin:564px 32px"><ellipse cx="564" cy="32" rx="5.0" ry="2.3" transform="rotate(-35 564 32)" fill="#8fbf7a" fill-opacity="0.98"/></g><g class="w" style="animation-delay:1.89s;transform-origin:636px 32px"><ellipse cx="636" cy="32" rx="5.0" ry="2.3" transform="rotate(-35 636 32)" fill="#f6c39f" fill-opacity="0.98"/></g><g class="w" style="animation-delay:1.96s;transform-origin:654px 32px"><ellipse cx="654" cy="32" rx="5.0" ry="2.3" transform="rotate(-55 654 32)" fill="#f9b8c6" fill-opacity="0.97"/></g><g class="w" style="animation-delay:2.03s;transform-origin:672px 32px"><ellipse cx="672" cy="32" rx="4.8" ry="2.2" transform="rotate(-35 672 32)" fill="#b7a6d9" fill-opacity="0.95"/></g><g class="w" style="animation-delay:2.10s;transform-origin:690px 32px"><ellipse cx="690" cy="32" rx="4.8" ry="2.2" transform="rotate(-55 690 32)" fill="#9cc8e0" fill-opacity="0.92"/></g><g class="w" style="animation-delay:2.17s;transform-origin:708px 32px"><ellipse cx="708" cy="32" rx="4.6" ry="2.2" transform="rotate(-35 708 32)" fill="#8fbf7a" fill-opacity="0.9"/></g><g class="w" style="animation-delay:2.24s;transform-origin:726px 32px"><ellipse cx="726" cy="32" rx="4.6" ry="2.2" transform="rotate(-55 726 32)" fill="#7fb6d5" fill-opacity="0.87"/></g><g class="w" style="animation-delay:2.31s;transform-origin:744px 32px"><ellipse cx="744" cy="32" rx="4.5" ry="2.1" transform="rotate(-35 744 32)" fill="#a9cf8e" fill-opacity="0.84"/></g><g class="w" style="animation-delay:2.38s;transform-origin:762px 32px"><ellipse cx="762" cy="32" rx="4.5" ry="2.1" transform="rotate(-55 762 32)" fill="#f2d58a" fill-opacity="0.8"/></g><g class="w" style="animation-delay:2.45s;transform-origin:780px 32px"><ellipse cx="780" cy="32" rx="4.3" ry="2.0" transform="rotate(-35 780 32)" fill="#f6c39f" fill-opacity="0.77"/></g><g class="w" style="animation-delay:2.52s;transform-origin:798px 32px"><ellipse cx="798" cy="32" rx="4.3" ry="2.0" transform="rotate(-55 798 32)" fill="#f9b8c6" fill-opacity="0.73"/></g><g class="w" style="animation-delay:2.59s;transform-origin:816px 32px"><ellipse cx="816" cy="32" rx="4.2" ry="2.0" transform="rotate(-35 816 32)" fill="#b7a6d9" fill-opacity="0.69"/></g><g class="w" style="animation-delay:2.66s;transform-origin:834px 32px"><ellipse cx="834" cy="32" rx="4.2" ry="2.0" transform="rotate(-55 834 32)" fill="#9cc8e0" fill-opacity="0.65"/></g><g class="w" style="animation-delay:2.73s;transform-origin:852px 32px"><ellipse cx="852" cy="32" rx="4.0" ry="1.9" transform="rotate(-35 852 32)" fill="#8fbf7a" fill-opacity="0.6"/></g><g class="w" style="animation-delay:2.80s;transform-origin:870px 32px"><ellipse cx="870" cy="32" rx="4.0" ry="1.9" transform="rotate(-55 870 32)" fill="#7fb6d5" fill-opacity="0.56"/></g><g class="w" style="animation-delay:2.87s;transform-origin:888px 32px"><ellipse cx="888" cy="32" rx="3.8" ry="1.8" transform="rotate(-35 888 32)" fill="#a9cf8e" fill-opacity="0.51"/></g><g class="w" style="animation-delay:2.94s;transform-origin:906px 32px"><ellipse cx="906" cy="32" rx="3.8" ry="1.8" transform="rotate(-55 906 32)" fill="#f2d58a" fill-opacity="0.46"/></g><g class="w" style="animation-delay:3.01s;transform-origin:924px 32px"><ellipse cx="924" cy="32" rx="3.7" ry="1.7" transform="rotate(-35 924 32)" fill="#f6c39f" fill-opacity="0.41"/></g><g class="w" style="animation-delay:3.08s;transform-origin:942px 32px"><ellipse cx="942" cy="32" rx="3.7" ry="1.7" transform="rotate(-55 942 32)" fill="#f9b8c6" fill-opacity="0.36"/></g><g class="w" style="animation-delay:3.15s;transform-origin:960px 32px"><ellipse cx="960" cy="32" rx="3.5" ry="1.7" transform="rotate(-35 960 32)" fill="#b7a6d9" fill-opacity="0.3"/></g><g class="w" style="animation-delay:3.22s;transform-origin:978px 32px"><ellipse cx="978" cy="32" rx="3.5" ry="1.7" transform="rotate(-55 978 32)" fill="#9cc8e0" fill-opacity="0.24"/></g><g class="w" style="animation-delay:3.29s;transform-origin:996px 32px"><ellipse cx="996" cy="32" rx="3.4" ry="1.6" transform="rotate(-35 996 32)" fill="#8fbf7a" fill-opacity="0.18"/></g><g class="w" style="animation-delay:3.36s;transform-origin:1014px 32px"><ellipse cx="1014" cy="32" rx="3.4" ry="1.6" transform="rotate(-55 1014 32)" fill="#7fb6d5" fill-opacity="0.15"/></g><g class="w" style="animation-delay:3.43s;transform-origin:1032px 32px"><ellipse cx="1032" cy="32" rx="3.2" ry="1.5" transform="rotate(-35 1032 32)" fill="#a9cf8e" fill-opacity="0.15"/></g><g class="w" style="animation-delay:3.50s;transform-origin:1050px 32px"><ellipse cx="1050" cy="32" rx="3.2" ry="1.5" transform="rotate(-55 1050 32)" fill="#f2d58a" fill-opacity="0.15"/></g>
  <g class="star">
    <circle cx="600" cy="32" r="14" fill="url(#glow)"/>
    <path d="M600 22 Q600 32 610 32 Q600 32 600 42 Q600 32 590 32 Q600 32 600 22Z" fill="#e8b04a"/>
  </g>
</svg>
